<svg id="图层_1" data-name="图层 1" xmlns="http://www.w3.org/2000/svg" viewBox="0 0 512 512"><defs><style>.cls-1{fill:transparent;}.cls-2{fill:#ffc000;}</style></defs><rect class="cls-1" width="512" height="512"/><circle class="cls-2" cx="256" cy="256" r="100"/><path class="cls-2" d="M256,106a149.33,149.33,0,0,1,85.3,26.6,2.36,2.36,0,0,0,3-.26l33.06-33.06a1.57,1.57,0,0,0-.16-2.36,200,200,0,0,0-242.42,0,1.57,1.57,0,0,0-.16,2.36l33.06,33.06a2.36,2.36,0,0,0,3,.26A149.33,149.33,0,0,1,256,106Z"/><path class="cls-2" d="M56,256A199.08,199.08,0,0,0,96.92,377.21a1.57,1.57,0,0,0,2.36.16l33.06-33.06a2.36,2.36,0,0,0,.26-3,150.07,150.07,0,0,1,0-170.6,2.36,2.36,0,0,0-.26-3L99.28,134.63a1.57,1.57,0,0,0-2.36.16A199.08,199.08,0,0,0,56,256Z"/><path class="cls-2" d="M456,256a199.08,199.08,0,0,0-40.92-121.21,1.57,1.57,0,0,0-2.36-.16l-33.06,33.06a2.36,2.36,0,0,0-.26,3,150.07,150.07,0,0,1,0,170.6,2.36,2.36,0,0,0,.26,3l33.06,33.06a1.57,1.57,0,0,0,2.36-.16A199.08,199.08,0,0,0,456,256Z"/><path class="cls-2" d="M256,406a149.33,149.33,0,0,1-85.3-26.6,2.36,2.36,0,0,0-3,.26l-33.06,33.06a1.57,1.57,0,0,0,.16,2.36,200,200,0,0,0,242.42,0,1.57,1.57,0,0,0,.16-2.36l-33.06-33.06a2.36,2.36,0,0,0-3-.26A149.33,149.33,0,0,1,256,406Z"/></svg>