<?xml version="1.0" encoding="UTF-8"?>
<svg id="_图层_1" data-name="图层 1" xmlns="http://www.w3.org/2000/svg" viewBox="0 0 1095 240">
  <defs>
    <style>
      .cls-1 {
        fill: #fff;
      }

      .cls-2 {
        fill: #1fb3e0;
      }
    </style>
  </defs>
  <g>
    <path class="cls-1" d="M26.53,149.15c-7.96-4.44-14.27-10.65-18.91-18.61-4.64-7.96-6.96-16.93-6.96-26.89s2.32-18.91,6.96-26.82c4.64-7.91,10.94-14.09,18.91-18.54,7.96-4.44,16.68-6.67,26.16-6.67s18.34,2.22,26.31,6.67c7.96,4.45,14.24,10.63,18.83,18.54,4.59,7.91,6.89,16.86,6.89,26.82s-2.3,18.93-6.89,26.89c-4.59,7.96-10.87,14.17-18.83,18.61-7.96,4.45-16.73,6.67-26.31,6.67s-18.2-2.22-26.16-6.67Zm44.19-12.46c5.28-3.08,9.4-7.47,12.38-13.19,2.98-5.72,4.47-12.33,4.47-19.86s-1.49-14.12-4.47-19.79c-2.98-5.67-7.11-10.01-12.38-13.04-5.28-3.03-11.29-4.54-18.03-4.54s-12.75,1.52-18.03,4.54c-5.28,3.03-9.41,7.38-12.38,13.04-2.98,5.67-4.47,12.26-4.47,19.79s1.49,14.14,4.47,19.86c2.98,5.72,7.11,10.11,12.38,13.19,5.28,3.08,11.29,4.62,18.03,4.62s12.75-1.54,18.03-4.62Z"/>
    <path class="cls-1" d="M160.56,103.94l31.66,50.86h-18.76l-23.01-36.93-21.54,36.93h-18.61l31.66-50.86-31.8-51h18.76l23.16,37.23,21.69-37.23h18.61l-31.81,51Z"/>
    <path class="cls-1" d="M250.7,66.42v29.9h35.18v13.63h-35.18v31.22h39.57v13.63h-56.28V52.79h56.28v13.63h-39.57Z"/>
    <path class="cls-1" d="M338.05,113.9l26.09,40.89h-18.91l-17.44-27.41-16.42,27.41h-17.44l26.09-39.72-26.09-41.04h18.91l17.44,27.41,16.42-27.41h17.44l-26.09,39.86Z"/>
    <path class="cls-1" d="M368.75,92.43c3.37-6.3,8.04-11.16,14-14.58,5.96-3.42,12.8-5.13,20.52-5.13,9.77,0,17.86,2.32,24.26,6.96,6.4,4.64,10.72,11.26,12.97,19.86h-18.03c-1.47-4.01-3.81-7.13-7.03-9.38-3.22-2.25-7.28-3.37-12.17-3.37-6.84,0-12.29,2.42-16.34,7.25-4.05,4.84-6.08,11.6-6.08,20.3s2.03,15.49,6.08,20.37c4.05,4.89,9.5,7.33,16.34,7.33,9.67,0,16.07-4.25,19.2-12.75h18.03c-2.35,8.21-6.74,14.73-13.19,19.57-6.45,4.84-14.46,7.25-24.04,7.25-7.72,0-14.56-1.73-20.52-5.2-5.96-3.47-10.63-8.35-14-14.66-3.37-6.3-5.06-13.61-5.06-21.91s1.68-15.61,5.06-21.91Z"/>
    <path class="cls-1" d="M508.13,76.68c4.84,2.64,8.65,6.55,11.43,11.72,2.79,5.18,4.18,11.43,4.18,18.76v47.63h-16.56v-45.14c0-7.23-1.81-12.77-5.42-16.63-3.61-3.86-8.55-5.79-14.8-5.79s-11.21,1.93-14.88,5.79c-3.67,3.86-5.5,9.4-5.5,16.63v45.14h-16.71V46.34h16.71v37.08c2.83-3.42,6.42-6.06,10.77-7.91,4.35-1.85,9.11-2.78,14.29-2.78,6.15,0,11.65,1.32,16.49,3.96Z"/>
    <path class="cls-1" d="M537.15,92.51c3.37-6.25,7.96-11.11,13.78-14.58,5.81-3.47,12.24-5.2,19.27-5.2,6.35,0,11.89,1.25,16.63,3.74,4.74,2.49,8.52,5.59,11.36,9.31v-11.72h16.85v80.76h-16.85v-12.02c-2.84,3.81-6.69,6.99-11.58,9.53-4.89,2.54-10.46,3.81-16.71,3.81-6.94,0-13.29-1.78-19.05-5.35-5.77-3.57-10.33-8.55-13.7-14.95-3.37-6.4-5.06-13.65-5.06-21.76s1.68-15.29,5.06-21.55Zm57.6,7.33c-2.3-4.1-5.3-7.23-9.01-9.38-3.71-2.15-7.72-3.22-12.02-3.22s-8.31,1.05-12.02,3.15c-3.72,2.1-6.72,5.18-9.02,9.23-2.3,4.05-3.44,8.87-3.44,14.44s1.15,10.46,3.44,14.66c2.3,4.2,5.32,7.4,9.09,9.6,3.76,2.2,7.74,3.3,11.94,3.3s8.31-1.07,12.02-3.22c3.71-2.15,6.72-5.3,9.01-9.45,2.3-4.15,3.44-9.01,3.44-14.58s-1.15-10.41-3.44-14.51Z"/>
    <path class="cls-1" d="M687.52,76.68c5.03,2.64,8.96,6.55,11.8,11.72,2.83,5.18,4.25,11.43,4.25,18.76v47.63h-16.56v-45.14c0-7.23-1.81-12.77-5.42-16.63-3.61-3.86-8.55-5.79-14.8-5.79s-11.21,1.93-14.88,5.79c-3.67,3.86-5.5,9.4-5.5,16.63v45.14h-16.71V74.04h16.71v9.23c2.73-3.32,6.23-5.91,10.48-7.77,4.25-1.85,8.77-2.78,13.56-2.78,6.35,0,12.04,1.32,17.07,3.96Z"/>
    <path class="cls-1" d="M766.66,76.46c4.84,2.49,8.62,5.59,11.36,9.31v-11.72h16.86v82.07c0,7.42-1.56,14.04-4.69,19.86-3.13,5.81-7.65,10.38-13.56,13.7-5.91,3.32-12.97,4.98-21.18,4.98-10.94,0-20.03-2.56-27.26-7.69-7.23-5.13-11.34-12.09-12.31-20.88h16.56c1.27,4.2,3.98,7.6,8.14,10.19,4.15,2.59,9.11,3.88,14.88,3.88,6.74,0,12.19-2.05,16.34-6.16,4.15-4.1,6.23-10.06,6.23-17.88v-13.48c-2.83,3.81-6.67,7.01-11.5,9.6s-10.33,3.88-16.49,3.88c-7.03,0-13.46-1.78-19.27-5.35-5.81-3.57-10.41-8.55-13.78-14.95-3.37-6.4-5.06-13.65-5.06-21.76s1.69-15.29,5.06-21.55c3.37-6.25,7.96-11.11,13.78-14.58,5.81-3.47,12.24-5.2,19.27-5.2,6.25,0,11.8,1.25,16.64,3.74Zm7.91,23.38c-2.3-4.1-5.3-7.23-9.02-9.38-3.71-2.15-7.72-3.22-12.02-3.22s-8.31,1.05-12.02,3.15c-3.71,2.1-6.72,5.18-9.01,9.23-2.3,4.05-3.44,8.87-3.44,14.44s1.15,10.46,3.44,14.66c2.29,4.2,5.32,7.4,9.09,9.6,3.76,2.2,7.74,3.3,11.95,3.3s8.3-1.07,12.02-3.22c3.71-2.15,6.72-5.3,9.02-9.45,2.29-4.15,3.44-9.01,3.44-14.58s-1.15-10.41-3.44-14.51Z"/>
    <path class="cls-1" d="M882.96,120.65h-61.7c.49,6.45,2.88,11.63,7.18,15.54,4.3,3.91,9.57,5.86,15.83,5.86,8.99,0,15.34-3.76,19.05-11.29h18.03c-2.44,7.43-6.86,13.51-13.26,18.25-6.4,4.74-14.34,7.11-23.82,7.11-7.72,0-14.63-1.73-20.74-5.2-6.11-3.47-10.9-8.35-14.36-14.66-3.47-6.3-5.2-13.61-5.2-21.91s1.69-15.61,5.06-21.91c3.37-6.3,8.11-11.16,14.22-14.58,6.11-3.42,13.12-5.13,21.03-5.13s14.41,1.66,20.37,4.98c5.96,3.32,10.6,7.99,13.92,14,3.32,6.01,4.98,12.92,4.98,20.74,0,3.03-.2,5.77-.59,8.21Zm-16.86-13.48c-.1-6.16-2.3-11.09-6.59-14.8-4.3-3.71-9.63-5.57-15.98-5.57-5.77,0-10.7,1.83-14.8,5.5-4.1,3.66-6.55,8.62-7.33,14.88h44.7Z"/>
  </g>
  <g>
    <polygon class="cls-2" points="1095.32 240.5 1011.31 120.52 1095.33 .52 1095.3 .5 1046.55 .5 962.52 120.5 962.51 120.52 962.51 120.52 962.51 120.53 962.52 120.54 1046.52 240.5 1095.32 240.5"/>
    <polygon class="cls-2" points="902.18 46.34 946.66 109.86 971.06 75.02 950.98 46.34 902.18 46.34"/>
    <polygon class="cls-2" points="950.98 194.66 971.09 165.93 946.7 131.09 902.18 194.66 950.98 194.66"/>
  </g>
</svg>
