<svg id="图层_1" data-name="图层 1" xmlns="http://www.w3.org/2000/svg" viewBox="0 0 1700 600">
    <defs>
        <style>
            .cls-1{fill:#0030d4;}
        </style>
    </defs>
    <path class="cls-1" d="M145.94,250.4a57.54,57.54,0,0,1,58.42.13l41.4-41.21a115,115,0,0,0-141-.33Z"/><path class="cls-1" d="M266,229.7l-41.4,41.21a57.51,57.51,0,1,1-99.07-.23L84.36,229.27A115,115,0,1,0,266,229.7Z"/><path class="cls-1" d="M376.72,361.93a68.28,68.28,0,0,1-25.84-25.35q-9.54-16.2-9.55-36.68a70.54,70.54,0,0,1,9.55-36.48,68.28,68.28,0,0,1,25.84-25.35,74.82,74.82,0,0,1,71.67,0A67.83,67.83,0,0,1,474,263.42q9.44,16.2,9.44,36.48,0,20.48-9.44,36.68a67.67,67.67,0,0,1-25.74,25.35,74.62,74.62,0,0,1-71.57,0Zm57.85-21.38a38.78,38.78,0,0,0,14.91-16.2q5.37-10.53,5.37-24.45t-5.37-24.35a38.39,38.39,0,0,0-14.91-16A43.1,43.1,0,0,0,412.5,254a43.59,43.59,0,0,0-22.16,5.56,38.18,38.18,0,0,0-15,16Q370,286,370,299.9t5.37,24.45a38.55,38.55,0,0,0,15,16.2,42.86,42.86,0,0,0,22.16,5.67A42.38,42.38,0,0,0,434.57,340.55Z"/><path class="cls-1" d="M571.3,369.68l-30-46.72-27.24,46.72H482.64l43.74-70L482,230.92h32l30,46.52,27-46.52h31.41L559,300.7l44.33,69Z"/><path class="cls-1" d="M678.84,253.38v34.79h46.72v22.07H678.84V347h52.68v22.66H651v-139h80.51v22.66Z"/><path class="cls-1" d="M830.93,369.68l-30-46.72-27.24,46.72h-31.4l43.73-70-44.33-68.78h32l30,46.52,27-46.52h31.41L818.6,300.7l44.33,69Z"/><path class="cls-1" d="M869.75,263.42A66.07,66.07,0,0,1,895,238.17a71.71,71.71,0,0,1,35.88-9q23.26,0,40.75,11.93t24.46,33h-32a33.16,33.16,0,0,0-13.42-14.91,39.44,39.44,0,0,0-20-5,41.16,41.16,0,0,0-21.57,5.66,38.66,38.66,0,0,0-14.71,16q-5.26,10.33-5.27,24.25,0,13.71,5.27,24.15a38.51,38.51,0,0,0,14.71,16.11A41.16,41.16,0,0,0,930.68,346a38.79,38.79,0,0,0,20-5.07,33.79,33.79,0,0,0,13.42-15h32q-7,21.29-24.36,33.1t-40.85,11.83a71.61,71.61,0,0,1-35.88-9,66.23,66.23,0,0,1-25.25-25.15q-9.24-16.11-9.24-36.58T869.75,263.42Z"/><path class="cls-1" d="M1125.1,230.92V369.68h-27.83v-59h-59.44v59H1010V230.92h27.83V288h59.44V230.92Z"/><path class="cls-1" d="M1227.68,343.24h-55.27l-9.14,26.44h-29.22l49.89-139h32.41l49.9,139h-29.43ZM1220.12,321l-20.07-58.05L1180,321Z"/><path class="cls-1" d="M1393.67,369.68h-27.83l-63-95.23v95.23H1275v-139h27.83l63,95.42V230.72h27.83Z"/><path class="cls-1" d="M1507.78,272.67a32.63,32.63,0,0,0-13.12-13.32,39.92,39.92,0,0,0-19.48-4.58,42.6,42.6,0,0,0-21.87,5.57,38.46,38.46,0,0,0-14.91,15.9A51.07,51.07,0,0,0,1433,300.1q0,13.92,5.47,24.25a38.6,38.6,0,0,0,15.21,15.91q9.74,5.57,22.66,5.56,15.9,0,26-8.45t13.32-23.55H1468V292.55h75.14V316.8a65.24,65.24,0,0,1-11.92,26.84,67.45,67.45,0,0,1-23.56,19.78,69.28,69.28,0,0,1-32.31,7.45,73.15,73.15,0,0,1-36.28-9,65.83,65.83,0,0,1-25.44-25.15q-9.24-16.11-9.25-36.58t9.25-36.68a65.67,65.67,0,0,1,25.44-25.25,72.86,72.86,0,0,1,36.09-9q23.44,0,40.75,11.43t23.86,32.11Z"/><path class="cls-1" d="M1581.73,253.38v34.79h46.72v22.07h-46.72V347h52.68v22.66H1553.9v-139h80.51v22.66Z"/>
</svg>